<svg width="43" height="24" viewBox="0 0 43 24" fill="none" xmlns="http://www.w3.org/2000/svg">
<g id="Frame 17">
<path id="Union" d="M9.37501 13.5C7.09683 13.5 5.25001 11.6532 5.25001 9.375C5.25001 7.09683 7.09683 5.25 9.37501 5.25H33.375C35.6532 5.25 37.5 7.09683 37.5 9.375C37.5 11.6532 35.6532 13.5 33.375 13.5H25.0643C24.5456 13.5 24.1835 14.0138 24.358 14.5023L25.875 18.75L27.5723 23.5023C27.6789 23.8007 27.9616 24 28.2786 24H31.9358C32.4544 24 32.8165 23.4862 32.6421 22.9977L31.304 19.2511C31.2168 19.0069 31.3978 18.75 31.6572 18.75H33.375C38.5527 18.75 42.75 14.5527 42.75 9.375C42.75 4.19733 38.5527 0 33.375 0H9.37501C4.19734 0 0 4.19733 0 9.375C0 14.5527 4.19734 18.75 9.37501 18.75H19.5608C20.0794 18.75 20.4415 18.2362 20.2671 17.7477L18.75 13.5L17.0528 8.74775C16.9462 8.44925 16.6634 8.25 16.3465 8.25H12.6893C12.1706 8.25 11.8085 8.76382 11.983 9.25225L13.321 12.9989C13.4083 13.2431 13.2272 13.5 12.9679 13.5H9.37501Z" fill="url(#paint0_linear_499_344)"/>
</g>
<defs>
<linearGradient id="paint0_linear_499_344" x1="0" y1="12" x2="38" y2="12" gradientUnits="userSpaceOnUse">
<stop stop-color="#F4F4F5"/>
<stop offset="1" stop-color="#F4F4F5" stop-opacity="0.65"/>
</linearGradient>
</defs>
</svg>
